<svg width="24" height="24" viewBox="0 0 24 24" fill="none" xmlns="http://www.w3.org/2000/svg">
<g clip-path="url(#clip0_28_17)">
<path fill-rule="evenodd" clip-rule="evenodd" d="M5 0C2.23858 0 0 2.23858 0 5V19C0 21.7614 2.23858 24 5 24H19C21.7614 24 24 21.7614 24 19V5C24 2.23858 21.7614 0 19 0H5ZM14.5768 8.46667H19.5127V7H14.5768V8.46667ZM17.1329 18C19.299 18 20.418 16.7511 20.7297 15.8H18.4959C17.7167 16.7409 15.3524 16.6668 15.2608 14.3121H20.9208C20.9306 13.6139 20.9088 13.1138 20.8538 12.7427C20.564 10.8038 19.2369 9.497 17.0638 9.497C14.849 9.497 13.2096 10.971 13.2096 13.8383C13.2096 16.7321 14.9653 18 17.1329 18ZM18.8111 12.8667H15.3101C15.4589 11.8026 16.0308 11.2394 17.0645 11.2394C18.01 11.2394 18.737 11.7322 18.8111 12.8667ZM4 17.9912H8.55931C13.3428 17.9912 13.2611 13.0038 10.8206 12.0798C12.8373 11.0077 12.7639 7.0748 8.9027 7.0154H4V17.9912ZM8.64251 11.4H6.11536V9.2H8.42252C10.6916 9.2 10.411 11.4 8.64251 11.4ZM6.11536 13.6H8.50642C10.4935 13.6 10.6253 15.8117 8.47117 15.8117H6.11536V13.6Z" fill="#5B5B5B"/>
</g>
<defs>
<clipPath id="clip0_28_17">
<rect width="24" height="24" fill="white"/>
</clipPath>
</defs>
</svg>
