<svg width="119" height="116" viewBox="0 0 119 116" fill="none" xmlns="http://www.w3.org/2000/svg">
<path d="M98.7693 78.118L98.2798 44.105L66.7598 26.8246L67.2493 60.865L67.766 88.771L99.286 106.051L98.7693 78.118Z" fill="#D8D8D8" stroke="#D8D8D8" stroke-width="0.75" stroke-linecap="round" stroke-linejoin="round"/>
<path d="M74.864 74.9961L43.344 57.7157L44.1871 57.6062L75.7071 74.8866L74.864 74.9961Z" fill="white" stroke="#D8D8D8" stroke-width="0.75" stroke-linecap="round" stroke-linejoin="round"/>
<path d="M75.7071 74.8865L44.187 57.6062L57.2138 4.80661L88.7339 22.0596L75.7071 74.8865Z" fill="#D8D8D8" stroke="#D8D8D8" stroke-width="0.75" stroke-linecap="round" stroke-linejoin="round"/>
<path d="M88.7339 22.0596L57.2139 4.80661L84.0562 1L115.576 18.2804L88.7339 22.0596Z" fill="white" stroke="#D8D8D8" stroke-width="0.75" stroke-linecap="round" stroke-linejoin="round"/>
<path d="M66.6238 100.629L35.1038 83.376L21.7234 33.2055L53.2434 50.4585L66.6238 100.629Z" fill="#D8D8D8" stroke="#D8D8D8" stroke-width="0.75" stroke-linecap="round" stroke-linejoin="round"/>
<path d="M32.52 115.499L1 98.2191L3.6652 12.3924L35.1852 29.6454L32.52 115.499Z" fill="#D8D8D8" stroke="#D8D8D8" stroke-width="0.75" stroke-linecap="round" stroke-linejoin="round"/>
<path d="M115.576 18.2804L117.915 103.395L99.2859 106.051L98.7692 78.1181L98.2797 44.1051L97.355 44.2147L83.7843 98.2192L66.6237 100.629L53.2433 50.4586L52.3186 50.5955L51.6931 84.8002L51.1764 112.843L32.52 115.5L35.1852 29.6455L61.946 25.8663L74.864 74.9961L75.7071 74.8866L88.7339 22.0596L115.576 18.2804Z" fill="white" stroke="#D8D8D8" stroke-width="0.75" stroke-linecap="round" stroke-linejoin="round"/>
<path d="M35.1853 29.6455L3.66528 12.3925L30.426 8.58588L61.9461 25.8662L35.1853 29.6455Z" fill="white" stroke="#D8D8D8" stroke-width="0.75" stroke-linecap="round" stroke-linejoin="round"/>
</svg>
